<svg width="19" height="18" viewBox="0 0 19 18" fill="none" xmlns="http://www.w3.org/2000/svg">
<path d="M1.69214 10H7.69214C8.24214 10 8.69214 9.55 8.69214 9V1C8.69214 0.45 8.24214 0 7.69214 0H1.69214C1.14214 0 0.692139 0.45 0.692139 1V9C0.692139 9.55 1.14214 10 1.69214 10ZM1.69214 18H7.69214C8.24214 18 8.69214 17.55 8.69214 17V13C8.69214 12.45 8.24214 12 7.69214 12H1.69214C1.14214 12 0.692139 12.45 0.692139 13V17C0.692139 17.55 1.14214 18 1.69214 18ZM11.6921 18H17.6921C18.2421 18 18.6921 17.55 18.6921 17V9C18.6921 8.45 18.2421 8 17.6921 8H11.6921C11.1421 8 10.6921 8.45 10.6921 9V17C10.6921 17.55 11.1421 18 11.6921 18ZM10.6921 1V5C10.6921 5.55 11.1421 6 11.6921 6H17.6921C18.2421 6 18.6921 5.55 18.6921 5V1C18.6921 0.45 18.2421 0 17.6921 0H11.6921C11.1421 0 10.6921 0.45 10.6921 1Z" fill="#0077CC"/>
</svg>
