<svg width="25" height="24" viewBox="0 0 25 24" fill="none" xmlns="http://www.w3.org/2000/svg">
<path fill-rule="evenodd" clip-rule="evenodd" d="M10.3326 15.2065C6.48857 15.2065 3.20557 15.7875 3.20557 18.1155C3.20557 20.4435 6.46857 21.0455 10.3326 21.0455C14.1776 21.0455 17.4596 20.4635 17.4596 18.1365C17.4596 15.8095 14.1976 15.2065 10.3326 15.2065Z" stroke="#1C1C1C" stroke-width="1.5" stroke-linecap="round" stroke-linejoin="round"/>
<path fill-rule="evenodd" clip-rule="evenodd" d="M10.3326 15.2065C6.48857 15.2065 3.20557 15.7875 3.20557 18.1155C3.20557 20.4435 6.46857 21.0455 10.3326 21.0455C14.1776 21.0455 17.4596 20.4635 17.4596 18.1365C17.4596 15.8095 14.1976 15.2065 10.3326 15.2065Z" stroke="black" stroke-opacity="0.2" stroke-width="1.5" stroke-linecap="round" stroke-linejoin="round"/>
<path fill-rule="evenodd" clip-rule="evenodd" d="M10.3326 15.2065C6.48857 15.2065 3.20557 15.7875 3.20557 18.1155C3.20557 20.4435 6.46857 21.0455 10.3326 21.0455C14.1776 21.0455 17.4596 20.4635 17.4596 18.1365C17.4596 15.8095 14.1976 15.2065 10.3326 15.2065Z" stroke="black" stroke-opacity="0.2" stroke-width="1.5" stroke-linecap="round" stroke-linejoin="round"/>
<path fill-rule="evenodd" clip-rule="evenodd" d="M10.3326 15.2065C6.48857 15.2065 3.20557 15.7875 3.20557 18.1155C3.20557 20.4435 6.46857 21.0455 10.3326 21.0455C14.1776 21.0455 17.4596 20.4635 17.4596 18.1365C17.4596 15.8095 14.1976 15.2065 10.3326 15.2065Z" stroke="black" stroke-opacity="0.2" stroke-width="1.5" stroke-linecap="round" stroke-linejoin="round"/>
<path fill-rule="evenodd" clip-rule="evenodd" d="M10.3326 15.2065C6.48857 15.2065 3.20557 15.7875 3.20557 18.1155C3.20557 20.4435 6.46857 21.0455 10.3326 21.0455C14.1776 21.0455 17.4596 20.4635 17.4596 18.1365C17.4596 15.8095 14.1976 15.2065 10.3326 15.2065Z" stroke="black" stroke-opacity="0.2" stroke-width="1.5" stroke-linecap="round" stroke-linejoin="round"/>
<path fill-rule="evenodd" clip-rule="evenodd" d="M10.3326 15.2065C6.48857 15.2065 3.20557 15.7875 3.20557 18.1155C3.20557 20.4435 6.46857 21.0455 10.3326 21.0455C14.1776 21.0455 17.4596 20.4635 17.4596 18.1365C17.4596 15.8095 14.1976 15.2065 10.3326 15.2065Z" stroke="black" stroke-opacity="0.2" stroke-width="1.5" stroke-linecap="round" stroke-linejoin="round"/>
<path fill-rule="evenodd" clip-rule="evenodd" d="M10.3326 15.2065C6.48857 15.2065 3.20557 15.7875 3.20557 18.1155C3.20557 20.4435 6.46857 21.0455 10.3326 21.0455C14.1776 21.0455 17.4596 20.4635 17.4596 18.1365C17.4596 15.8095 14.1976 15.2065 10.3326 15.2065Z" stroke="black" stroke-opacity="0.2" stroke-width="1.5" stroke-linecap="round" stroke-linejoin="round"/>
<path fill-rule="evenodd" clip-rule="evenodd" d="M10.3327 11.886C12.8557 11.886 14.9007 9.841 14.9007 7.318C14.9007 4.795 12.8557 2.75 10.3327 2.75C7.81065 2.75 5.76565 4.795 5.76565 7.318C5.75665 9.832 7.78665 11.877 10.3017 11.886H10.3327Z" stroke="#1C1C1C" stroke-width="1.5" stroke-linecap="round" stroke-linejoin="round"/>
<path fill-rule="evenodd" clip-rule="evenodd" d="M10.3327 11.886C12.8557 11.886 14.9007 9.841 14.9007 7.318C14.9007 4.795 12.8557 2.75 10.3327 2.75C7.81065 2.75 5.76565 4.795 5.76565 7.318C5.75665 9.832 7.78665 11.877 10.3017 11.886H10.3327Z" stroke="black" stroke-opacity="0.2" stroke-width="1.5" stroke-linecap="round" stroke-linejoin="round"/>
<path fill-rule="evenodd" clip-rule="evenodd" d="M10.3327 11.886C12.8557 11.886 14.9007 9.841 14.9007 7.318C14.9007 4.795 12.8557 2.75 10.3327 2.75C7.81065 2.75 5.76565 4.795 5.76565 7.318C5.75665 9.832 7.78665 11.877 10.3017 11.886H10.3327Z" stroke="black" stroke-opacity="0.2" stroke-width="1.5" stroke-linecap="round" stroke-linejoin="round"/>
<path fill-rule="evenodd" clip-rule="evenodd" d="M10.3327 11.886C12.8557 11.886 14.9007 9.841 14.9007 7.318C14.9007 4.795 12.8557 2.75 10.3327 2.75C7.81065 2.75 5.76565 4.795 5.76565 7.318C5.75665 9.832 7.78665 11.877 10.3017 11.886H10.3327Z" stroke="black" stroke-opacity="0.2" stroke-width="1.5" stroke-linecap="round" stroke-linejoin="round"/>
<path fill-rule="evenodd" clip-rule="evenodd" d="M10.3327 11.886C12.8557 11.886 14.9007 9.841 14.9007 7.318C14.9007 4.795 12.8557 2.75 10.3327 2.75C7.81065 2.75 5.76565 4.795 5.76565 7.318C5.75665 9.832 7.78665 11.877 10.3017 11.886H10.3327Z" stroke="black" stroke-opacity="0.2" stroke-width="1.5" stroke-linecap="round" stroke-linejoin="round"/>
<path fill-rule="evenodd" clip-rule="evenodd" d="M10.3327 11.886C12.8557 11.886 14.9007 9.841 14.9007 7.318C14.9007 4.795 12.8557 2.75 10.3327 2.75C7.81065 2.75 5.76565 4.795 5.76565 7.318C5.75665 9.832 7.78665 11.877 10.3017 11.886H10.3327Z" stroke="black" stroke-opacity="0.2" stroke-width="1.5" stroke-linecap="round" stroke-linejoin="round"/>
<path fill-rule="evenodd" clip-rule="evenodd" d="M10.3327 11.886C12.8557 11.886 14.9007 9.841 14.9007 7.318C14.9007 4.795 12.8557 2.75 10.3327 2.75C7.81065 2.75 5.76565 4.795 5.76565 7.318C5.75665 9.832 7.78665 11.877 10.3017 11.886H10.3327Z" stroke="black" stroke-opacity="0.2" stroke-width="1.5" stroke-linecap="round" stroke-linejoin="round"/>
<path d="M19.6597 8.66943V12.6794" stroke="#1C1C1C" stroke-width="1.5" stroke-linecap="round" stroke-linejoin="round"/>
<path d="M19.6597 8.66943V12.6794" stroke="black" stroke-opacity="0.2" stroke-width="1.5" stroke-linecap="round" stroke-linejoin="round"/>
<path d="M19.6597 8.66943V12.6794" stroke="black" stroke-opacity="0.2" stroke-width="1.5" stroke-linecap="round" stroke-linejoin="round"/>
<path d="M19.6597 8.66943V12.6794" stroke="black" stroke-opacity="0.2" stroke-width="1.5" stroke-linecap="round" stroke-linejoin="round"/>
<path d="M19.6597 8.66943V12.6794" stroke="black" stroke-opacity="0.2" stroke-width="1.5" stroke-linecap="round" stroke-linejoin="round"/>
<path d="M19.6597 8.66943V12.6794" stroke="black" stroke-opacity="0.2" stroke-width="1.5" stroke-linecap="round" stroke-linejoin="round"/>
<path d="M19.6597 8.66943V12.6794" stroke="black" stroke-opacity="0.2" stroke-width="1.5" stroke-linecap="round" stroke-linejoin="round"/>
<path d="M21.7055 10.6743H17.6155" stroke="#1C1C1C" stroke-width="1.5" stroke-linecap="round" stroke-linejoin="round"/>
<path d="M21.7055 10.6743H17.6155" stroke="black" stroke-opacity="0.2" stroke-width="1.5" stroke-linecap="round" stroke-linejoin="round"/>
<path d="M21.7055 10.6743H17.6155" stroke="black" stroke-opacity="0.2" stroke-width="1.5" stroke-linecap="round" stroke-linejoin="round"/>
<path d="M21.7055 10.6743H17.6155" stroke="black" stroke-opacity="0.2" stroke-width="1.5" stroke-linecap="round" stroke-linejoin="round"/>
<path d="M21.7055 10.6743H17.6155" stroke="black" stroke-opacity="0.2" stroke-width="1.5" stroke-linecap="round" stroke-linejoin="round"/>
<path d="M21.7055 10.6743H17.6155" stroke="black" stroke-opacity="0.2" stroke-width="1.5" stroke-linecap="round" stroke-linejoin="round"/>
<path d="M21.7055 10.6743H17.6155" stroke="black" stroke-opacity="0.2" stroke-width="1.5" stroke-linecap="round" stroke-linejoin="round"/>
</svg>
