<svg width="25" height="24" viewBox="0 0 25 24" fill="none" xmlns="http://www.w3.org/2000/svg">
<path d="M10.2859 3.94C10.3759 3.398 10.8459 3 11.3959 3H13.9889C14.5389 3 15.0089 3.398 15.0989 3.94L15.3119 5.221C15.3749 5.595 15.6249 5.907 15.9569 6.091C16.0309 6.131 16.1039 6.174 16.1769 6.218C16.5019 6.414 16.8969 6.475 17.2519 6.342L18.4689 5.886C18.7183 5.79221 18.9928 5.78998 19.2437 5.87971C19.4946 5.96945 19.7055 6.14531 19.8389 6.376L21.1349 8.623C21.2679 8.8537 21.3148 9.12413 21.2672 9.38617C21.2196 9.6482 21.0806 9.88485 20.8749 10.054L19.8719 10.881C19.5789 11.122 19.4339 11.494 19.4419 11.873C19.4433 11.958 19.4433 12.043 19.4419 12.128C19.4339 12.506 19.5789 12.878 19.8719 13.119L20.8759 13.946C21.2999 14.296 21.4099 14.901 21.1359 15.376L19.8379 17.623C19.7047 17.8536 19.494 18.0296 19.2434 18.1195C18.9927 18.2094 18.7182 18.2074 18.4689 18.114L17.2519 17.658C16.8969 17.525 16.5019 17.586 16.1759 17.782C16.1034 17.8261 16.03 17.8688 15.9559 17.91C15.6249 18.093 15.3749 18.405 15.3119 18.779L15.0989 20.06C15.0089 20.603 14.5389 21 13.9889 21H11.3949C10.8449 21 10.3759 20.602 10.2849 20.06L10.0719 18.779C10.0099 18.405 9.75986 18.093 9.42786 17.909C9.3537 17.8681 9.28036 17.8258 9.20786 17.782C8.88286 17.586 8.48786 17.525 8.13186 17.658L6.91486 18.114C6.66558 18.2075 6.39122 18.2096 6.14056 18.1199C5.88989 18.0302 5.67917 17.8545 5.54586 17.624L4.24886 15.377C4.1158 15.1463 4.0689 14.8759 4.11651 14.6138C4.16412 14.3518 4.30315 14.1152 4.50886 13.946L5.51286 13.119C5.80486 12.879 5.94986 12.506 5.94286 12.128C5.94129 12.043 5.94129 11.958 5.94286 11.873C5.94986 11.493 5.80486 11.122 5.51286 10.881L4.50886 10.054C4.3034 9.88489 4.16453 9.64843 4.11693 9.38662C4.06933 9.12481 4.11607 8.8546 4.24886 8.624L5.54586 6.377C5.67904 6.14614 5.88987 5.97006 6.14077 5.88014C6.39167 5.79021 6.66635 5.79229 6.91586 5.886L8.13186 6.342C8.48786 6.475 8.88286 6.414 9.20786 6.218C9.27986 6.174 9.35386 6.132 9.42786 6.09C9.75986 5.907 10.0099 5.595 10.0719 5.221L10.2859 3.94Z" stroke="#1C1C1C" stroke-width="1.5" stroke-linecap="round" stroke-linejoin="round"/>
<path d="M10.2859 3.94C10.3759 3.398 10.8459 3 11.3959 3H13.9889C14.5389 3 15.0089 3.398 15.0989 3.94L15.3119 5.221C15.3749 5.595 15.6249 5.907 15.9569 6.091C16.0309 6.131 16.1039 6.174 16.1769 6.218C16.5019 6.414 16.8969 6.475 17.2519 6.342L18.4689 5.886C18.7183 5.79221 18.9928 5.78998 19.2437 5.87971C19.4946 5.96945 19.7055 6.14531 19.8389 6.376L21.1349 8.623C21.2679 8.8537 21.3148 9.12413 21.2672 9.38617C21.2196 9.6482 21.0806 9.88485 20.8749 10.054L19.8719 10.881C19.5789 11.122 19.4339 11.494 19.4419 11.873C19.4433 11.958 19.4433 12.043 19.4419 12.128C19.4339 12.506 19.5789 12.878 19.8719 13.119L20.8759 13.946C21.2999 14.296 21.4099 14.901 21.1359 15.376L19.8379 17.623C19.7047 17.8536 19.494 18.0296 19.2434 18.1195C18.9927 18.2094 18.7182 18.2074 18.4689 18.114L17.2519 17.658C16.8969 17.525 16.5019 17.586 16.1759 17.782C16.1034 17.8261 16.03 17.8688 15.9559 17.91C15.6249 18.093 15.3749 18.405 15.3119 18.779L15.0989 20.06C15.0089 20.603 14.5389 21 13.9889 21H11.3949C10.8449 21 10.3759 20.602 10.2849 20.06L10.0719 18.779C10.0099 18.405 9.75986 18.093 9.42786 17.909C9.3537 17.8681 9.28036 17.8258 9.20786 17.782C8.88286 17.586 8.48786 17.525 8.13186 17.658L6.91486 18.114C6.66558 18.2075 6.39122 18.2096 6.14056 18.1199C5.88989 18.0302 5.67917 17.8545 5.54586 17.624L4.24886 15.377C4.1158 15.1463 4.0689 14.8759 4.11651 14.6138C4.16412 14.3518 4.30315 14.1152 4.50886 13.946L5.51286 13.119C5.80486 12.879 5.94986 12.506 5.94286 12.128C5.94129 12.043 5.94129 11.958 5.94286 11.873C5.94986 11.493 5.80486 11.122 5.51286 10.881L4.50886 10.054C4.3034 9.88489 4.16453 9.64843 4.11693 9.38662C4.06933 9.12481 4.11607 8.8546 4.24886 8.624L5.54586 6.377C5.67904 6.14614 5.88987 5.97006 6.14077 5.88014C6.39167 5.79021 6.66635 5.79229 6.91586 5.886L8.13186 6.342C8.48786 6.475 8.88286 6.414 9.20786 6.218C9.27986 6.174 9.35386 6.132 9.42786 6.09C9.75986 5.907 10.0099 5.595 10.0719 5.221L10.2859 3.94Z" stroke="black" stroke-opacity="0.2" stroke-width="1.5" stroke-linecap="round" stroke-linejoin="round"/>
<path d="M10.2859 3.94C10.3759 3.398 10.8459 3 11.3959 3H13.9889C14.5389 3 15.0089 3.398 15.0989 3.94L15.3119 5.221C15.3749 5.595 15.6249 5.907 15.9569 6.091C16.0309 6.131 16.1039 6.174 16.1769 6.218C16.5019 6.414 16.8969 6.475 17.2519 6.342L18.4689 5.886C18.7183 5.79221 18.9928 5.78998 19.2437 5.87971C19.4946 5.96945 19.7055 6.14531 19.8389 6.376L21.1349 8.623C21.2679 8.8537 21.3148 9.12413 21.2672 9.38617C21.2196 9.6482 21.0806 9.88485 20.8749 10.054L19.8719 10.881C19.5789 11.122 19.4339 11.494 19.4419 11.873C19.4433 11.958 19.4433 12.043 19.4419 12.128C19.4339 12.506 19.5789 12.878 19.8719 13.119L20.8759 13.946C21.2999 14.296 21.4099 14.901 21.1359 15.376L19.8379 17.623C19.7047 17.8536 19.494 18.0296 19.2434 18.1195C18.9927 18.2094 18.7182 18.2074 18.4689 18.114L17.2519 17.658C16.8969 17.525 16.5019 17.586 16.1759 17.782C16.1034 17.8261 16.03 17.8688 15.9559 17.91C15.6249 18.093 15.3749 18.405 15.3119 18.779L15.0989 20.06C15.0089 20.603 14.5389 21 13.9889 21H11.3949C10.8449 21 10.3759 20.602 10.2849 20.06L10.0719 18.779C10.0099 18.405 9.75986 18.093 9.42786 17.909C9.3537 17.8681 9.28036 17.8258 9.20786 17.782C8.88286 17.586 8.48786 17.525 8.13186 17.658L6.91486 18.114C6.66558 18.2075 6.39122 18.2096 6.14056 18.1199C5.88989 18.0302 5.67917 17.8545 5.54586 17.624L4.24886 15.377C4.1158 15.1463 4.0689 14.8759 4.11651 14.6138C4.16412 14.3518 4.30315 14.1152 4.50886 13.946L5.51286 13.119C5.80486 12.879 5.94986 12.506 5.94286 12.128C5.94129 12.043 5.94129 11.958 5.94286 11.873C5.94986 11.493 5.80486 11.122 5.51286 10.881L4.50886 10.054C4.3034 9.88489 4.16453 9.64843 4.11693 9.38662C4.06933 9.12481 4.11607 8.8546 4.24886 8.624L5.54586 6.377C5.67904 6.14614 5.88987 5.97006 6.14077 5.88014C6.39167 5.79021 6.66635 5.79229 6.91586 5.886L8.13186 6.342C8.48786 6.475 8.88286 6.414 9.20786 6.218C9.27986 6.174 9.35386 6.132 9.42786 6.09C9.75986 5.907 10.0099 5.595 10.0719 5.221L10.2859 3.94Z" stroke="black" stroke-opacity="0.2" stroke-width="1.5" stroke-linecap="round" stroke-linejoin="round"/>
<path d="M10.2859 3.94C10.3759 3.398 10.8459 3 11.3959 3H13.9889C14.5389 3 15.0089 3.398 15.0989 3.94L15.3119 5.221C15.3749 5.595 15.6249 5.907 15.9569 6.091C16.0309 6.131 16.1039 6.174 16.1769 6.218C16.5019 6.414 16.8969 6.475 17.2519 6.342L18.4689 5.886C18.7183 5.79221 18.9928 5.78998 19.2437 5.87971C19.4946 5.96945 19.7055 6.14531 19.8389 6.376L21.1349 8.623C21.2679 8.8537 21.3148 9.12413 21.2672 9.38617C21.2196 9.6482 21.0806 9.88485 20.8749 10.054L19.8719 10.881C19.5789 11.122 19.4339 11.494 19.4419 11.873C19.4433 11.958 19.4433 12.043 19.4419 12.128C19.4339 12.506 19.5789 12.878 19.8719 13.119L20.8759 13.946C21.2999 14.296 21.4099 14.901 21.1359 15.376L19.8379 17.623C19.7047 17.8536 19.494 18.0296 19.2434 18.1195C18.9927 18.2094 18.7182 18.2074 18.4689 18.114L17.2519 17.658C16.8969 17.525 16.5019 17.586 16.1759 17.782C16.1034 17.8261 16.03 17.8688 15.9559 17.91C15.6249 18.093 15.3749 18.405 15.3119 18.779L15.0989 20.06C15.0089 20.603 14.5389 21 13.9889 21H11.3949C10.8449 21 10.3759 20.602 10.2849 20.06L10.0719 18.779C10.0099 18.405 9.75986 18.093 9.42786 17.909C9.3537 17.8681 9.28036 17.8258 9.20786 17.782C8.88286 17.586 8.48786 17.525 8.13186 17.658L6.91486 18.114C6.66558 18.2075 6.39122 18.2096 6.14056 18.1199C5.88989 18.0302 5.67917 17.8545 5.54586 17.624L4.24886 15.377C4.1158 15.1463 4.0689 14.8759 4.11651 14.6138C4.16412 14.3518 4.30315 14.1152 4.50886 13.946L5.51286 13.119C5.80486 12.879 5.94986 12.506 5.94286 12.128C5.94129 12.043 5.94129 11.958 5.94286 11.873C5.94986 11.493 5.80486 11.122 5.51286 10.881L4.50886 10.054C4.3034 9.88489 4.16453 9.64843 4.11693 9.38662C4.06933 9.12481 4.11607 8.8546 4.24886 8.624L5.54586 6.377C5.67904 6.14614 5.88987 5.97006 6.14077 5.88014C6.39167 5.79021 6.66635 5.79229 6.91586 5.886L8.13186 6.342C8.48786 6.475 8.88286 6.414 9.20786 6.218C9.27986 6.174 9.35386 6.132 9.42786 6.09C9.75986 5.907 10.0099 5.595 10.0719 5.221L10.2859 3.94Z" stroke="black" stroke-opacity="0.2" stroke-width="1.5" stroke-linecap="round" stroke-linejoin="round"/>
<path d="M10.2859 3.94C10.3759 3.398 10.8459 3 11.3959 3H13.9889C14.5389 3 15.0089 3.398 15.0989 3.94L15.3119 5.221C15.3749 5.595 15.6249 5.907 15.9569 6.091C16.0309 6.131 16.1039 6.174 16.1769 6.218C16.5019 6.414 16.8969 6.475 17.2519 6.342L18.4689 5.886C18.7183 5.79221 18.9928 5.78998 19.2437 5.87971C19.4946 5.96945 19.7055 6.14531 19.8389 6.376L21.1349 8.623C21.2679 8.8537 21.3148 9.12413 21.2672 9.38617C21.2196 9.6482 21.0806 9.88485 20.8749 10.054L19.8719 10.881C19.5789 11.122 19.4339 11.494 19.4419 11.873C19.4433 11.958 19.4433 12.043 19.4419 12.128C19.4339 12.506 19.5789 12.878 19.8719 13.119L20.8759 13.946C21.2999 14.296 21.4099 14.901 21.1359 15.376L19.8379 17.623C19.7047 17.8536 19.494 18.0296 19.2434 18.1195C18.9927 18.2094 18.7182 18.2074 18.4689 18.114L17.2519 17.658C16.8969 17.525 16.5019 17.586 16.1759 17.782C16.1034 17.8261 16.03 17.8688 15.9559 17.91C15.6249 18.093 15.3749 18.405 15.3119 18.779L15.0989 20.06C15.0089 20.603 14.5389 21 13.9889 21H11.3949C10.8449 21 10.3759 20.602 10.2849 20.06L10.0719 18.779C10.0099 18.405 9.75986 18.093 9.42786 17.909C9.3537 17.8681 9.28036 17.8258 9.20786 17.782C8.88286 17.586 8.48786 17.525 8.13186 17.658L6.91486 18.114C6.66558 18.2075 6.39122 18.2096 6.14056 18.1199C5.88989 18.0302 5.67917 17.8545 5.54586 17.624L4.24886 15.377C4.1158 15.1463 4.0689 14.8759 4.11651 14.6138C4.16412 14.3518 4.30315 14.1152 4.50886 13.946L5.51286 13.119C5.80486 12.879 5.94986 12.506 5.94286 12.128C5.94129 12.043 5.94129 11.958 5.94286 11.873C5.94986 11.493 5.80486 11.122 5.51286 10.881L4.50886 10.054C4.3034 9.88489 4.16453 9.64843 4.11693 9.38662C4.06933 9.12481 4.11607 8.8546 4.24886 8.624L5.54586 6.377C5.67904 6.14614 5.88987 5.97006 6.14077 5.88014C6.39167 5.79021 6.66635 5.79229 6.91586 5.886L8.13186 6.342C8.48786 6.475 8.88286 6.414 9.20786 6.218C9.27986 6.174 9.35386 6.132 9.42786 6.09C9.75986 5.907 10.0099 5.595 10.0719 5.221L10.2859 3.94Z" stroke="black" stroke-opacity="0.2" stroke-width="1.5" stroke-linecap="round" stroke-linejoin="round"/>
<path d="M10.2859 3.94C10.3759 3.398 10.8459 3 11.3959 3H13.9889C14.5389 3 15.0089 3.398 15.0989 3.94L15.3119 5.221C15.3749 5.595 15.6249 5.907 15.9569 6.091C16.0309 6.131 16.1039 6.174 16.1769 6.218C16.5019 6.414 16.8969 6.475 17.2519 6.342L18.4689 5.886C18.7183 5.79221 18.9928 5.78998 19.2437 5.87971C19.4946 5.96945 19.7055 6.14531 19.8389 6.376L21.1349 8.623C21.2679 8.8537 21.3148 9.12413 21.2672 9.38617C21.2196 9.6482 21.0806 9.88485 20.8749 10.054L19.8719 10.881C19.5789 11.122 19.4339 11.494 19.4419 11.873C19.4433 11.958 19.4433 12.043 19.4419 12.128C19.4339 12.506 19.5789 12.878 19.8719 13.119L20.8759 13.946C21.2999 14.296 21.4099 14.901 21.1359 15.376L19.8379 17.623C19.7047 17.8536 19.494 18.0296 19.2434 18.1195C18.9927 18.2094 18.7182 18.2074 18.4689 18.114L17.2519 17.658C16.8969 17.525 16.5019 17.586 16.1759 17.782C16.1034 17.8261 16.03 17.8688 15.9559 17.91C15.6249 18.093 15.3749 18.405 15.3119 18.779L15.0989 20.06C15.0089 20.603 14.5389 21 13.9889 21H11.3949C10.8449 21 10.3759 20.602 10.2849 20.06L10.0719 18.779C10.0099 18.405 9.75986 18.093 9.42786 17.909C9.3537 17.8681 9.28036 17.8258 9.20786 17.782C8.88286 17.586 8.48786 17.525 8.13186 17.658L6.91486 18.114C6.66558 18.2075 6.39122 18.2096 6.14056 18.1199C5.88989 18.0302 5.67917 17.8545 5.54586 17.624L4.24886 15.377C4.1158 15.1463 4.0689 14.8759 4.11651 14.6138C4.16412 14.3518 4.30315 14.1152 4.50886 13.946L5.51286 13.119C5.80486 12.879 5.94986 12.506 5.94286 12.128C5.94129 12.043 5.94129 11.958 5.94286 11.873C5.94986 11.493 5.80486 11.122 5.51286 10.881L4.50886 10.054C4.3034 9.88489 4.16453 9.64843 4.11693 9.38662C4.06933 9.12481 4.11607 8.8546 4.24886 8.624L5.54586 6.377C5.67904 6.14614 5.88987 5.97006 6.14077 5.88014C6.39167 5.79021 6.66635 5.79229 6.91586 5.886L8.13186 6.342C8.48786 6.475 8.88286 6.414 9.20786 6.218C9.27986 6.174 9.35386 6.132 9.42786 6.09C9.75986 5.907 10.0099 5.595 10.0719 5.221L10.2859 3.94Z" stroke="black" stroke-opacity="0.2" stroke-width="1.5" stroke-linecap="round" stroke-linejoin="round"/>
<path d="M10.2859 3.94C10.3759 3.398 10.8459 3 11.3959 3H13.9889C14.5389 3 15.0089 3.398 15.0989 3.94L15.3119 5.221C15.3749 5.595 15.6249 5.907 15.9569 6.091C16.0309 6.131 16.1039 6.174 16.1769 6.218C16.5019 6.414 16.8969 6.475 17.2519 6.342L18.4689 5.886C18.7183 5.79221 18.9928 5.78998 19.2437 5.87971C19.4946 5.96945 19.7055 6.14531 19.8389 6.376L21.1349 8.623C21.2679 8.8537 21.3148 9.12413 21.2672 9.38617C21.2196 9.6482 21.0806 9.88485 20.8749 10.054L19.8719 10.881C19.5789 11.122 19.4339 11.494 19.4419 11.873C19.4433 11.958 19.4433 12.043 19.4419 12.128C19.4339 12.506 19.5789 12.878 19.8719 13.119L20.8759 13.946C21.2999 14.296 21.4099 14.901 21.1359 15.376L19.8379 17.623C19.7047 17.8536 19.494 18.0296 19.2434 18.1195C18.9927 18.2094 18.7182 18.2074 18.4689 18.114L17.2519 17.658C16.8969 17.525 16.5019 17.586 16.1759 17.782C16.1034 17.8261 16.03 17.8688 15.9559 17.91C15.6249 18.093 15.3749 18.405 15.3119 18.779L15.0989 20.06C15.0089 20.603 14.5389 21 13.9889 21H11.3949C10.8449 21 10.3759 20.602 10.2849 20.06L10.0719 18.779C10.0099 18.405 9.75986 18.093 9.42786 17.909C9.3537 17.8681 9.28036 17.8258 9.20786 17.782C8.88286 17.586 8.48786 17.525 8.13186 17.658L6.91486 18.114C6.66558 18.2075 6.39122 18.2096 6.14056 18.1199C5.88989 18.0302 5.67917 17.8545 5.54586 17.624L4.24886 15.377C4.1158 15.1463 4.0689 14.8759 4.11651 14.6138C4.16412 14.3518 4.30315 14.1152 4.50886 13.946L5.51286 13.119C5.80486 12.879 5.94986 12.506 5.94286 12.128C5.94129 12.043 5.94129 11.958 5.94286 11.873C5.94986 11.493 5.80486 11.122 5.51286 10.881L4.50886 10.054C4.3034 9.88489 4.16453 9.64843 4.11693 9.38662C4.06933 9.12481 4.11607 8.8546 4.24886 8.624L5.54586 6.377C5.67904 6.14614 5.88987 5.97006 6.14077 5.88014C6.39167 5.79021 6.66635 5.79229 6.91586 5.886L8.13186 6.342C8.48786 6.475 8.88286 6.414 9.20786 6.218C9.27986 6.174 9.35386 6.132 9.42786 6.09C9.75986 5.907 10.0099 5.595 10.0719 5.221L10.2859 3.94Z" stroke="black" stroke-opacity="0.2" stroke-width="1.5" stroke-linecap="round" stroke-linejoin="round"/>
<path d="M15.6919 12C15.6919 12.7956 15.3758 13.5587 14.8132 14.1213C14.2506 14.6839 13.4875 15 12.6919 15C11.8962 15 11.1332 14.6839 10.5706 14.1213C10.008 13.5587 9.69189 12.7956 9.69189 12C9.69189 11.2044 10.008 10.4413 10.5706 9.87868C11.1332 9.31607 11.8962 9 12.6919 9C13.4875 9 14.2506 9.31607 14.8132 9.87868C15.3758 10.4413 15.6919 11.2044 15.6919 12Z" stroke="#1C1C1C" stroke-width="1.5" stroke-linecap="round" stroke-linejoin="round"/>
<path d="M15.6919 12C15.6919 12.7956 15.3758 13.5587 14.8132 14.1213C14.2506 14.6839 13.4875 15 12.6919 15C11.8962 15 11.1332 14.6839 10.5706 14.1213C10.008 13.5587 9.69189 12.7956 9.69189 12C9.69189 11.2044 10.008 10.4413 10.5706 9.87868C11.1332 9.31607 11.8962 9 12.6919 9C13.4875 9 14.2506 9.31607 14.8132 9.87868C15.3758 10.4413 15.6919 11.2044 15.6919 12Z" stroke="black" stroke-opacity="0.2" stroke-width="1.5" stroke-linecap="round" stroke-linejoin="round"/>
<path d="M15.6919 12C15.6919 12.7956 15.3758 13.5587 14.8132 14.1213C14.2506 14.6839 13.4875 15 12.6919 15C11.8962 15 11.1332 14.6839 10.5706 14.1213C10.008 13.5587 9.69189 12.7956 9.69189 12C9.69189 11.2044 10.008 10.4413 10.5706 9.87868C11.1332 9.31607 11.8962 9 12.6919 9C13.4875 9 14.2506 9.31607 14.8132 9.87868C15.3758 10.4413 15.6919 11.2044 15.6919 12Z" stroke="black" stroke-opacity="0.2" stroke-width="1.5" stroke-linecap="round" stroke-linejoin="round"/>
<path d="M15.6919 12C15.6919 12.7956 15.3758 13.5587 14.8132 14.1213C14.2506 14.6839 13.4875 15 12.6919 15C11.8962 15 11.1332 14.6839 10.5706 14.1213C10.008 13.5587 9.69189 12.7956 9.69189 12C9.69189 11.2044 10.008 10.4413 10.5706 9.87868C11.1332 9.31607 11.8962 9 12.6919 9C13.4875 9 14.2506 9.31607 14.8132 9.87868C15.3758 10.4413 15.6919 11.2044 15.6919 12Z" stroke="black" stroke-opacity="0.2" stroke-width="1.5" stroke-linecap="round" stroke-linejoin="round"/>
<path d="M15.6919 12C15.6919 12.7956 15.3758 13.5587 14.8132 14.1213C14.2506 14.6839 13.4875 15 12.6919 15C11.8962 15 11.1332 14.6839 10.5706 14.1213C10.008 13.5587 9.69189 12.7956 9.69189 12C9.69189 11.2044 10.008 10.4413 10.5706 9.87868C11.1332 9.31607 11.8962 9 12.6919 9C13.4875 9 14.2506 9.31607 14.8132 9.87868C15.3758 10.4413 15.6919 11.2044 15.6919 12Z" stroke="black" stroke-opacity="0.2" stroke-width="1.5" stroke-linecap="round" stroke-linejoin="round"/>
<path d="M15.6919 12C15.6919 12.7956 15.3758 13.5587 14.8132 14.1213C14.2506 14.6839 13.4875 15 12.6919 15C11.8962 15 11.1332 14.6839 10.5706 14.1213C10.008 13.5587 9.69189 12.7956 9.69189 12C9.69189 11.2044 10.008 10.4413 10.5706 9.87868C11.1332 9.31607 11.8962 9 12.6919 9C13.4875 9 14.2506 9.31607 14.8132 9.87868C15.3758 10.4413 15.6919 11.2044 15.6919 12Z" stroke="black" stroke-opacity="0.2" stroke-width="1.5" stroke-linecap="round" stroke-linejoin="round"/>
<path d="M15.6919 12C15.6919 12.7956 15.3758 13.5587 14.8132 14.1213C14.2506 14.6839 13.4875 15 12.6919 15C11.8962 15 11.1332 14.6839 10.5706 14.1213C10.008 13.5587 9.69189 12.7956 9.69189 12C9.69189 11.2044 10.008 10.4413 10.5706 9.87868C11.1332 9.31607 11.8962 9 12.6919 9C13.4875 9 14.2506 9.31607 14.8132 9.87868C15.3758 10.4413 15.6919 11.2044 15.6919 12Z" stroke="black" stroke-opacity="0.2" stroke-width="1.5" stroke-linecap="round" stroke-linejoin="round"/>
</svg>
