<svg width="24" height="24" viewBox="0 0 24 24" fill="none" xmlns="http://www.w3.org/2000/svg">
<g clip-path="url(#clip0_12767_362)">
<path d="M15.75 0.0983067C15.4688 0.224869 15.2484 0.445182 15.1125 0.726432C15.0234 0.918619 15 1.03581 15 1.36862V1.78112H13.4344C11.925 1.78112 11.8688 1.78581 11.7469 1.87956C11.5828 2.00612 11.5781 2.28268 11.7328 2.42799C11.8406 2.53112 11.8641 2.53112 13.4203 2.53112H15V2.89206C15 3.33737 15.1266 3.64206 15.4125 3.89987C15.6609 4.12487 15.8953 4.21862 16.2141 4.22799C16.425 4.23268 16.4813 4.21862 16.5516 4.12956C16.6547 4.00299 16.6688 3.75924 16.5797 3.64206C16.5516 3.59518 16.4063 3.52956 16.2656 3.49206C16.0922 3.44518 15.9656 3.37956 15.8813 3.28112C15.7641 3.15924 15.75 3.10299 15.75 2.83581V2.53112H17.1562H18.5625V2.87331C18.5625 3.06549 18.5953 3.31393 18.6375 3.43581C18.7969 3.89987 19.2797 4.25612 19.7812 4.27956C20.0766 4.29362 20.2219 4.16706 20.2172 3.91393C20.2125 3.69831 20.1422 3.62331 19.9031 3.56237C19.4391 3.44518 19.3125 3.28581 19.3125 2.82174V2.53112L20.7797 2.54049L22.2422 2.55456L22.2563 3.87643L22.2656 5.20299H12H1.73438L1.74375 3.87643L1.75781 2.55456L2.30156 2.54049L2.85 2.52643L2.86875 2.96237C2.89219 3.47799 2.98594 3.69362 3.3 3.97018C3.62813 4.26081 4.20469 4.37799 4.40625 4.19518C4.51406 4.09674 4.53281 3.81549 4.43906 3.68893C4.41094 3.64206 4.26563 3.57643 4.125 3.53893C3.95156 3.49206 3.825 3.42643 3.74063 3.32799C3.62344 3.20143 3.60938 3.14987 3.60938 2.85924V2.53112H5.01562H6.42188V2.84987C6.42188 3.02799 6.45469 3.27643 6.49219 3.40768C6.63281 3.88581 7.125 4.25612 7.64531 4.27956C7.85625 4.28893 7.89844 4.27487 8.00156 4.15299C8.2125 3.90924 8.07188 3.59987 7.725 3.54362C7.32656 3.47799 7.17188 3.28112 7.17188 2.82174V2.53112H8.80781C9.70781 2.53112 10.4813 2.51706 10.5234 2.50299C10.6594 2.44674 10.7438 2.21706 10.6875 2.04362C10.6125 1.81393 10.4906 1.78112 9.70312 1.78112H9V1.39206C9 1.08737 8.97656 0.960807 8.8875 0.773307C8.6625 0.299869 8.25938 0.0514317 7.70625 0.0467443C6.91875 0.0467443 6.42188 0.595181 6.42188 1.46237V1.78112H5.92969H5.4375V1.43893C5.4375 1.02174 5.34375 0.726432 5.12813 0.477994C4.66406 -0.0657558 3.76406 -0.107944 3.24375 0.388931C2.97656 0.642056 2.89219 0.862369 2.86875 1.34518L2.85 1.78112H2.24531C1.91719 1.78112 1.58906 1.80456 1.51406 1.83268C1.31719 1.90299 1.08281 2.15143 1.03125 2.34362C1.00313 2.44206 0.984375 3.74518 0.984375 5.68581V8.86393L1.10156 8.97643C1.25156 9.13112 1.49063 9.13581 1.63125 8.98581C1.73438 8.87799 1.73438 8.84987 1.73438 7.41549V5.95299H12H22.2656V9.85768C22.2656 14.1139 22.2516 13.9217 22.5281 13.9874C22.7016 14.0342 22.9031 13.9405 22.9641 13.7905C23.0016 13.7014 23.0156 12.0421 23.0063 7.98268L22.9922 2.30612L22.8469 2.12331C22.6078 1.82331 22.4719 1.78112 21.7688 1.78112H21.15L21.1313 1.34518C21.1078 0.862369 21.0234 0.642056 20.7563 0.388931C20.2406 -0.103256 19.3359 -0.0657558 18.8766 0.468619C18.6562 0.726432 18.5625 1.01706 18.5625 1.43893V1.78112H18.0703H17.5781V1.43893C17.5781 0.787369 17.3484 0.360806 16.8656 0.121744C16.5516 -0.037631 16.0688 -0.0470057 15.75 0.0983067ZM16.5844 0.824869C16.7531 0.942057 16.8281 1.14362 16.8281 1.47643V1.78112H16.2891H15.75V1.42487C15.75 1.08268 15.7547 1.06393 15.9094 0.909244C16.0406 0.777994 16.1016 0.749869 16.275 0.749869C16.3875 0.749869 16.5281 0.782681 16.5844 0.824869ZM4.44375 0.871744C4.60781 0.984244 4.6875 1.19049 4.6875 1.49987V1.78112H4.14375H3.6L3.61875 1.42487C3.63281 1.09206 3.64688 1.05924 3.7875 0.932681C3.96094 0.773307 4.26563 0.745181 4.44375 0.871744ZM8.09063 0.956119C8.24063 1.10612 8.25 1.13424 8.25 1.44831V1.78112H7.71094H7.17188V1.49987C7.17188 1.02643 7.35469 0.796744 7.725 0.796744C7.89844 0.796744 7.95938 0.824869 8.09063 0.956119ZM20.2125 0.932681C20.3531 1.05924 20.3672 1.09206 20.3813 1.42487L20.4 1.78112H19.8563H19.3125V1.49987C19.3125 1.03112 19.4953 0.796744 19.8609 0.796744C20.0156 0.796744 20.0953 0.829556 20.2125 0.932681Z" fill="#151515"/>
<path d="M5.38906 7.6875C5.33281 7.71094 5.25781 7.77656 5.22031 7.8375C5.15 7.94063 4.71875 10.2141 4.71875 10.4578C4.71875 10.6313 4.90156 10.7812 5.10313 10.7812C5.36094 10.7812 5.44063 10.6453 5.53906 10.0359C5.59063 9.75 5.64219 9.52969 5.66094 9.54844C5.67969 9.57188 5.75938 9.80625 5.83438 10.0688C6.00313 10.65 6.10156 10.7812 6.38281 10.7812C6.66875 10.7812 6.7625 10.6547 6.94063 10.0266C7.025 9.73594 7.10469 9.52031 7.11875 9.54375C7.13281 9.56719 7.18438 9.80625 7.23125 10.0734C7.32969 10.65 7.40938 10.7812 7.66719 10.7812C7.87813 10.7812 8.04688 10.6266 8.04688 10.4297C8.04688 10.275 7.64375 8.16094 7.56875 7.93125C7.48438 7.65 7.04844 7.56094 6.85156 7.78125C6.80469 7.83281 6.68281 8.17969 6.575 8.55469L6.37813 9.24375L6.19531 8.61563C5.975 7.84688 5.93281 7.75781 5.74531 7.69219C5.57188 7.63125 5.52969 7.63125 5.38906 7.6875Z" fill="#151515"/>
<path d="M9.55621 7.68754C9.05934 7.79066 8.59996 8.1891 8.41715 8.66723C8.2859 9.01879 8.30934 9.57191 8.4734 9.9141C8.61402 10.2141 8.89527 10.4954 9.19527 10.636C9.53746 10.8 10.0906 10.8235 10.4421 10.6922C10.8125 10.5516 11.1031 10.2797 11.2906 9.90473C11.4171 9.64691 11.4406 9.54379 11.4406 9.26254C11.4453 8.76098 11.3281 8.47504 10.9812 8.12816C10.7796 7.9266 10.625 7.81879 10.4609 7.76723C10.1656 7.6641 9.81402 7.63598 9.55621 7.68754ZM10.2546 8.50785C10.5734 8.67191 10.7609 9.0891 10.6718 9.42191C10.4843 10.1204 9.55621 10.2516 9.19059 9.62816C8.78277 8.93441 9.53746 8.13754 10.2546 8.50785Z" fill="#151515"/>
<path d="M12.1392 7.68758C11.8954 7.78602 11.886 7.85164 11.9001 9.28133L11.9142 10.6032L12.0267 10.6923C12.1532 10.7954 12.397 10.8095 12.5282 10.7157C12.6079 10.6548 12.622 10.5704 12.6407 9.95164L12.6642 9.25789L13.1657 9.98914C13.4423 10.3923 13.7048 10.7345 13.7423 10.7532C13.9204 10.8188 14.1267 10.7813 14.2392 10.6595L14.3517 10.5376V9.20633C14.3517 7.89383 14.3517 7.87508 14.2485 7.77195C14.1173 7.64539 13.8548 7.63602 13.7235 7.7532C13.6345 7.83289 13.6251 7.90789 13.6157 8.55477L13.6017 9.27195L13.0673 8.49852C12.4907 7.65945 12.4017 7.58445 12.1392 7.68758Z" fill="#151515"/>
<path d="M15.0781 7.67313C14.9188 7.72938 14.8438 7.84657 14.8438 8.0247C14.8438 8.28251 14.9703 8.39032 15.2656 8.39032H15.5V9.49188C15.5 10.5325 15.5047 10.5981 15.5938 10.6872C15.6922 10.7856 15.9172 10.8091 16.0625 10.7341C16.2172 10.6497 16.25 10.4247 16.25 9.39345V8.39032H16.4563C16.7375 8.39032 16.8781 8.27313 16.8781 8.03876C16.8781 7.90282 16.8453 7.8372 16.7469 7.75282C16.625 7.64501 16.5922 7.64032 15.8844 7.64501C15.4813 7.64501 15.1156 7.65907 15.0781 7.67313Z" fill="#151515"/>
<path d="M17.5859 7.69665C17.3797 7.80915 17.375 7.83259 17.375 9.23415V10.5795L17.4828 10.6779C17.6422 10.8279 17.9 10.8185 18.0266 10.6592C18.1109 10.5513 18.125 10.467 18.125 10.0498V9.56228H18.5703H19.0156V10.0498C19.0156 10.467 19.0297 10.5513 19.1141 10.6592C19.2406 10.8185 19.5266 10.8326 19.6719 10.6779C19.7609 10.5795 19.7656 10.5185 19.7656 9.22946C19.7656 7.73415 19.7609 7.72009 19.4516 7.65915C19.325 7.63571 19.2781 7.65446 19.1563 7.77165C19.0203 7.91228 19.0156 7.92634 19.0156 8.36228V8.81228H18.5703H18.125V8.3529C18.1203 7.87946 18.0922 7.79509 17.9047 7.69665C17.7781 7.62634 17.7078 7.62634 17.5859 7.69665Z" fill="#151515"/>
<path d="M1.19063 10.0405C1.13438 10.0639 1.06406 10.1389 1.03594 10.1999C0.998438 10.2842 0.984375 11.5545 0.984375 14.6155C0.984375 18.6842 0.989063 18.9233 1.07344 19.1014C1.12031 19.2045 1.20469 19.3264 1.25625 19.3733C1.48594 19.5795 1.60313 19.5889 3.825 19.5936H5.93906L5.99531 19.7905C6.08906 20.1045 6.44063 20.7983 6.70781 21.2061C7.03594 21.703 7.77656 22.467 8.28281 22.828C9.04219 23.367 10.0078 23.7702 10.8984 23.9249C11.4375 24.0186 12.5016 24.0233 13.0688 23.9295C14.2172 23.742 15.4313 23.1608 16.2422 22.4014C16.5047 22.1577 16.5469 22.092 16.5469 21.9514C16.5469 21.7686 16.3734 21.5624 16.2188 21.5624C16.0875 21.5624 15.8906 21.6702 15.7734 21.8014C15.7219 21.8577 15.5203 22.0217 15.3281 22.167C13.4953 23.5358 10.9828 23.6295 9.01875 22.3967C8.51719 22.0874 7.85156 21.4686 7.48594 20.9764C6.96094 20.2733 6.57656 19.3405 6.44531 18.4827C6.01875 15.6514 7.82344 12.942 10.6266 12.2014C11.2594 12.0374 12.3094 11.9999 12.9703 12.117C14.0625 12.3139 15.0375 12.8108 15.8484 13.5795C17.6813 15.3186 18.1359 17.967 16.9922 20.2124C16.8094 20.5733 16.7859 20.7514 16.9172 20.9108C17.0297 21.0467 17.2969 21.0561 17.4375 20.9295C17.5547 20.8264 17.9156 20.0952 18.0047 19.7905L18.0609 19.5936H20.175C22.3969 19.5889 22.5141 19.5795 22.7438 19.3733C22.7953 19.3264 22.8797 19.2045 22.9266 19.1014C23.0063 18.928 23.0156 18.7592 23.0156 17.0249V15.1358L22.8984 15.0233C22.7484 14.8686 22.5094 14.8639 22.3688 15.0139C22.2703 15.1217 22.2656 15.1499 22.2563 16.9733L22.2422 18.8202L20.2594 18.8342L18.2766 18.8436L18.3141 18.5295C18.3328 18.3514 18.3516 17.9202 18.3516 17.5639V16.9217H19.2094C20.2922 16.9217 20.4797 16.8608 20.6766 16.4295C20.7563 16.2608 20.7656 16.092 20.7656 14.5639C20.7656 13.1061 20.7563 12.867 20.6906 12.7358C20.5828 12.5249 20.4844 12.4264 20.2875 12.3233C20.1234 12.2389 19.9781 12.2342 17.7516 12.2342H15.3891L14.9484 12.0045C14.0344 11.5217 13.0969 11.2967 12 11.2967C10.9031 11.2967 9.96563 11.5217 9.05156 12.0045L8.61094 12.2342H6.50625C4.53281 12.2342 4.39219 12.2389 4.22813 12.3233C4.03125 12.4264 3.93281 12.5249 3.825 12.7358C3.75938 12.867 3.75 13.1108 3.75 14.578C3.75 16.0452 3.75938 16.2889 3.825 16.4202C4.04063 16.842 4.23281 16.9217 5.025 16.9217H5.64844V17.5639C5.64844 17.9202 5.66719 18.3514 5.68594 18.5295L5.72344 18.8436L3.74063 18.8342L1.75781 18.8202L1.73438 14.4936L1.71094 10.1624L1.59844 10.0733C1.48125 9.97486 1.34531 9.96548 1.19063 10.0405ZM7.29375 13.3639C6.675 14.0202 6.1875 14.8686 5.92031 15.7405L5.78906 16.1764L5.15625 16.1624L4.52344 16.1483L4.50938 14.6249C4.50469 13.7858 4.50938 13.078 4.52344 13.0452C4.5375 12.9983 4.89375 12.9842 6.09844 12.9842H7.65L7.29375 13.3639ZM19.9922 14.578V16.1483L19.1016 16.1624L18.2109 16.1717L18.0797 15.7405C17.8125 14.8686 17.325 14.0202 16.7063 13.3639L16.35 12.9842L18.1688 12.9936L19.9922 13.0077V14.578Z" fill="#151515"/>
<path d="M11.5172 13.7809C10.2188 13.9403 9.08438 14.7418 8.49375 15.9137C8.33438 16.2372 8.15625 16.7809 8.15625 16.959C8.15625 17.0762 8.15156 17.0762 7.94531 16.8747C7.7625 16.6965 7.70625 16.6637 7.54219 16.6637C7.3125 16.6637 7.17188 16.8043 7.17188 17.0293C7.17188 17.1465 7.26094 17.2637 7.72031 17.7278C8.26875 18.2809 8.39062 18.3653 8.57344 18.3043C8.67188 18.2762 9.72188 17.4043 9.83438 17.259C9.8625 17.2168 9.89062 17.1043 9.89062 17.0106C9.89062 16.8747 9.8625 16.8137 9.76875 16.7387C9.55781 16.5747 9.40313 16.6168 9.05156 16.9403L8.89688 17.0856L8.92969 16.9215C8.99531 16.6028 9.23906 16.0965 9.47813 15.7731C10.0734 14.9856 10.9875 14.5215 11.9531 14.5168C12.4969 14.5122 12.8344 14.5918 13.3547 14.845C13.725 15.0231 13.8609 15.1215 14.1797 15.4403C14.8172 16.0825 15.1078 16.7762 15.1078 17.6481C15.1078 18.52 14.8172 19.2184 14.1797 19.8512C13.5984 20.4325 13.0172 20.6997 12.1219 20.7934C11.7469 20.8309 11.625 20.92 11.625 21.159C11.625 21.2481 11.6672 21.3653 11.7141 21.4262C11.7984 21.5293 11.8359 21.5387 12.1688 21.5247C13.7344 21.4731 15.1453 20.4231 15.6609 18.9231C16.4062 16.7575 15.1172 14.3856 12.9141 13.8747C12.4453 13.7668 11.9297 13.734 11.5172 13.7809Z" fill="#151515"/>
<path d="M11.7233 15.403C11.6671 15.4733 11.6249 15.5952 11.6249 15.6842C11.6249 15.8202 11.6015 15.853 11.4515 15.9327C11.2218 16.0452 11.1374 16.1436 11.0108 16.4295C10.8796 16.7202 10.9077 17.0717 11.0858 17.3717C11.2358 17.6249 11.4327 17.7561 11.9436 17.953C12.3936 18.1264 12.4733 18.2249 12.3749 18.4686C12.3421 18.5483 12.2718 18.642 12.2155 18.6795C12.0749 18.778 11.7233 18.7686 11.5171 18.6561C11.2827 18.5295 11.0858 18.5342 10.9452 18.6795C10.6733 18.9467 10.8843 19.2702 11.4515 19.453C11.6061 19.4999 11.6249 19.5233 11.6249 19.6592C11.6249 19.992 12.0749 20.1514 12.2765 19.8936C12.3327 19.8233 12.3749 19.7014 12.3749 19.617C12.3749 19.4811 12.403 19.4436 12.5858 19.3405C12.9608 19.1202 13.2093 18.6186 13.153 18.2014C13.0874 17.7139 12.8061 17.4327 12.1827 17.2264C11.6905 17.0624 11.5452 16.8608 11.7655 16.6405C11.8874 16.5186 12.0936 16.5186 12.2483 16.6452C12.5577 16.8842 12.9374 16.7577 12.9374 16.4061C12.9374 16.2608 12.9093 16.1999 12.7686 16.078C12.6749 15.9983 12.5483 15.9139 12.4874 15.8905C12.3983 15.853 12.3749 15.8108 12.3749 15.6889C12.3749 15.4452 12.2202 15.2811 11.9999 15.2811C11.8593 15.2811 11.7983 15.3092 11.7233 15.403Z" fill="#151515"/>
</g>
<defs>
<clipPath id="clip0_12767_362">
<rect width="24" height="24" fill="white"/>
</clipPath>
</defs>
</svg>
