<svg width="25" height="24" viewBox="0 0 25 24" fill="none" xmlns="http://www.w3.org/2000/svg">
<path d="M8.98432 2.29219C7.62963 2.5875 6.45775 3.55781 5.93275 4.82344C5.63744 5.53594 5.60932 5.79375 5.60932 8.0625C5.60932 9.95156 5.614 10.1156 5.69369 10.2609C5.82963 10.5141 6.03119 10.5938 6.52338 10.5938C7.01557 10.5938 7.2265 10.5094 7.34369 10.2703C7.40463 10.1437 7.43275 10.125 7.54994 10.1484C7.62494 10.1625 7.74213 10.1719 7.81244 10.1719C7.92963 10.1719 7.939 10.1906 7.99525 10.4859C8.08432 10.9922 8.40775 11.6062 8.78275 11.9859C8.96088 12.1641 9.22338 12.3797 9.36869 12.4688C9.65463 12.6375 9.68744 12.6984 9.68744 13.0406C9.68744 13.3125 9.6265 13.4859 9.46244 13.6547C9.19057 13.9406 9.18119 13.9406 7.6015 13.9734C6.19525 14.0016 6.13432 14.0062 5.7265 14.1281C4.17025 14.5969 3.07338 15.8062 2.76869 17.3812C2.67963 17.8453 2.67025 21.6516 2.75932 21.7406C2.8015 21.7828 4.639 21.7969 10.7468 21.7969C15.1109 21.7969 18.7156 21.7828 18.7578 21.7687C18.8515 21.7312 18.9687 21.5062 18.9687 21.3609C18.9687 21.2625 18.9968 21.2437 19.1562 21.2156C19.4234 21.1734 19.7984 21.0234 20.1031 20.8406L20.3656 20.6859L20.464 20.7844C20.5296 20.85 20.6234 20.8828 20.7499 20.8828C20.914 20.8828 20.9703 20.85 21.1578 20.6578C21.3499 20.4703 21.3828 20.4094 21.3828 20.2547C21.3828 20.1281 21.3499 20.0344 21.2796 19.9594L21.1812 19.8516L21.2937 19.6875C21.4437 19.4719 21.6781 18.9047 21.7156 18.6656C21.7437 18.4969 21.7624 18.4687 21.8609 18.4687C21.9968 18.4687 22.1562 18.3891 22.2359 18.2859C22.3109 18.1875 22.3109 17.5781 22.2359 17.4797C22.1562 17.3766 21.9968 17.2969 21.8609 17.2969C21.7624 17.2969 21.7437 17.2687 21.7156 17.1C21.6781 16.8609 21.4437 16.2937 21.2937 16.0781L21.1812 15.9141L21.2984 15.7781C21.4531 15.5953 21.4203 15.375 21.2093 15.15C20.914 14.8453 20.6328 14.7891 20.4453 15C20.3656 15.0891 20.3609 15.0891 20.2296 14.9953C20.0187 14.85 19.5359 14.6437 19.2406 14.5781C19.0062 14.5266 18.9687 14.5031 18.9687 14.4094C18.9687 14.2406 18.8749 14.0766 18.7484 14.0203C18.6874 13.9922 18.5093 13.9687 18.3546 13.9687C18.1015 13.9687 18.0546 13.9828 17.9328 14.1047C17.8437 14.1937 17.7968 14.2922 17.7968 14.3812C17.7968 14.5031 17.7781 14.5219 17.5859 14.5641C17.4031 14.6062 17.3562 14.5969 17.1781 14.4937C16.864 14.3156 16.2874 14.1141 15.8421 14.0391C15.5562 13.9875 15.0921 13.9687 14.239 13.9687C13.1703 13.9687 13.0203 13.9594 12.8515 13.8797C12.5046 13.7203 12.3124 13.4344 12.3124 13.0828C12.3124 12.7453 12.3593 12.6375 12.5421 12.5297C12.8562 12.3516 13.2031 12.0469 13.4234 11.7656L13.6343 11.4891L14.5203 11.475L15.4062 11.4609L15.5328 11.3344C15.6406 11.2266 15.664 11.1562 15.6781 10.8984C15.6968 10.6359 15.7109 10.5938 15.7859 10.5938C15.964 10.5938 16.2031 10.4578 16.2968 10.3031C16.3859 10.1531 16.3906 10.0734 16.3906 8.08125C16.3906 6.84375 16.3718 5.90625 16.339 5.7375C16.0531 4.11562 14.8296 2.77969 13.2265 2.33437C12.8749 2.23594 12.7437 2.23125 11.1171 2.21719C9.57963 2.20781 9.33588 2.21719 8.98432 2.29219ZM13.3015 2.79375C14.3562 3.16875 15.1109 3.825 15.5749 4.75781C15.8703 5.35781 15.9687 5.78906 16.0015 6.63281L16.0296 7.33594L15.5749 7.32187C15.0546 7.30312 14.9046 7.34531 14.7124 7.57031C14.5999 7.70156 14.5624 7.71562 14.389 7.69687L14.1921 7.67812L14.3984 7.42969C15.2374 6.39844 14.839 4.85156 13.5781 4.24687C13.3015 4.11562 13.2312 4.10156 12.8281 4.10625C12.3171 4.10625 11.8109 4.22344 11.1687 4.48125C10.6109 4.70625 10.3906 4.69219 9.80932 4.40625C9.46713 4.2375 9.33119 4.19531 9.08275 4.18125C8.52963 4.14844 7.99525 4.43906 7.57338 4.99687C7.00619 5.74687 7.02025 6.7125 7.61088 7.43437L7.80775 7.67812L7.61088 7.69687C7.44213 7.71094 7.39994 7.69687 7.28744 7.56562C7.09525 7.35 6.94525 7.30312 6.45775 7.32187L6.03119 7.33594V6.65625C6.03119 6.14062 6.05463 5.88281 6.12494 5.59219C6.46244 4.18125 7.564 3.07031 8.97494 2.71875C9.30307 2.63906 9.49525 2.62969 11.1171 2.63906L12.8984 2.64844L13.3015 2.79375ZM13.414 4.63594C14.2765 5.04844 14.6515 5.99062 14.2812 6.825C14.1781 7.06406 14.1124 7.05937 14.0843 6.82031C14.0609 6.57656 13.9062 6.53906 12.9921 6.53906C12.0968 6.54375 11.8812 6.58125 11.0562 6.89062C10.3859 7.14375 10.0531 7.19531 9.57025 7.10625C9.19525 7.04531 8.55307 6.81562 8.36088 6.67969C8.239 6.59531 8.01869 6.58594 7.96713 6.66562C7.94838 6.69844 7.92025 6.82031 7.90619 6.9375L7.88275 7.14844L7.72338 6.83437C7.57807 6.54375 7.56869 6.49219 7.58275 6.15469C7.60619 5.69531 7.77025 5.34844 8.1265 5.01094C8.64682 4.51875 8.98432 4.47656 9.69213 4.80469C10.4421 5.15625 10.564 5.15156 11.6749 4.73906C12.064 4.59375 12.4718 4.50937 12.8281 4.50469C13.0718 4.5 13.189 4.52812 13.414 4.63594ZM13.6203 6.96562L13.7328 6.98906L13.6999 8.56875C13.6671 10.1625 13.6343 10.4766 13.4609 10.8844L13.3906 11.0625H12.7671H12.1437L12.0359 10.9172C11.8437 10.6547 11.6843 10.5938 11.1921 10.5938C10.8359 10.5938 10.7234 10.6125 10.5781 10.6922C10.2124 10.8984 10.1046 11.4047 10.3624 11.7422C10.5593 11.9953 10.7468 12.0562 11.2624 12.0375C11.7546 12.0234 11.8906 11.9531 12.0546 11.6578L12.1484 11.4844H12.6406L13.1328 11.4891L12.8234 11.7844C11.8109 12.75 10.2406 12.7641 9.20463 11.8125C8.88119 11.5125 8.65619 11.1703 8.47807 10.6969C8.35619 10.3828 8.35619 10.3734 8.33744 8.77031C8.32338 7.22812 8.32338 7.1625 8.40775 7.18594C8.45463 7.20469 8.68432 7.28437 8.914 7.36406C9.26557 7.49062 9.42025 7.51875 9.8515 7.53281C10.4187 7.55625 10.4796 7.54219 11.5156 7.17656C11.8296 7.06875 12.214 6.97031 12.4296 6.94219C12.7859 6.90469 13.3718 6.91406 13.6203 6.96562ZM6.94994 7.8C7.03432 7.86094 7.039 7.94062 7.05307 8.89219C7.06713 10.1859 7.08119 10.1437 6.5515 10.1625C6.30775 10.1719 6.139 10.1578 6.09682 10.1203C6.04525 10.0781 6.03119 9.85312 6.03119 8.94844C6.03119 7.93594 6.04057 7.82812 6.11557 7.78594C6.23744 7.71094 6.84213 7.725 6.94994 7.8ZM15.9406 7.8375C16.0015 7.92656 16.0156 8.11406 16.0156 8.95312C16.0156 10.2094 16.0343 10.1719 15.4812 10.1719C15.2468 10.1719 15.0734 10.1484 15.0406 10.1156C14.9984 10.0734 14.9843 9.75469 14.9843 8.97187C14.9843 8.04375 14.9937 7.87031 15.0593 7.80937C15.1109 7.75312 15.2281 7.73437 15.4999 7.73437C15.8281 7.73437 15.8796 7.74375 15.9406 7.8375ZM7.83119 8.09062C7.89682 8.11406 7.90619 8.23594 7.90619 8.93437V9.75H7.77963C7.49369 9.75 7.43744 9.60937 7.43744 8.88281C7.43744 8.32031 7.44213 8.2875 7.55463 8.17969C7.67182 8.05781 7.70932 8.04375 7.83119 8.09062ZM14.4453 8.17969C14.5578 8.2875 14.5624 8.31562 14.5624 8.92969C14.5624 9.50156 14.5531 9.57187 14.4687 9.65625C14.4124 9.7125 14.314 9.75 14.2296 9.75H14.0796L14.1031 8.95781C14.1171 8.52187 14.1453 8.14219 14.1593 8.11406C14.2109 8.02969 14.3234 8.05312 14.4453 8.17969ZM14.6093 10.1719C14.6093 10.1953 14.6749 10.2891 14.7546 10.3828C14.8578 10.5 14.9562 10.5562 15.0828 10.575L15.2656 10.6078V10.8328V11.0625H14.5578C13.9015 11.0625 13.8499 11.0578 13.8828 10.9781C13.9437 10.8187 14.0468 10.3828 14.0468 10.2797C14.0468 10.1906 14.0749 10.1766 14.2484 10.1578C14.3562 10.1484 14.4828 10.1391 14.5296 10.1344C14.5718 10.1297 14.6093 10.1437 14.6093 10.1719ZM11.539 11.0344C11.7499 11.1234 11.8015 11.3016 11.6703 11.475C11.5859 11.5922 11.5437 11.6016 11.2109 11.6156C10.8874 11.6297 10.8359 11.6156 10.7374 11.5266C10.6062 11.4047 10.5968 11.2687 10.6953 11.1234C10.8078 10.9641 11.2578 10.9172 11.539 11.0344ZM10.7937 12.9187C11.1218 12.9469 11.6562 12.8953 11.8531 12.8203C11.8999 12.8016 11.9093 12.8484 11.8999 13.0031C11.8578 13.5141 12.1765 14.0437 12.6499 14.25C12.8515 14.3391 13.0156 14.3672 13.5078 14.3859L14.1171 14.4141L13.8828 14.5875C12.8093 15.3703 11.0749 15.6328 9.52338 15.2344C9.08275 15.1219 8.43588 14.8219 8.13119 14.5875L7.9015 14.4141L8.5015 14.3859C8.98432 14.3672 9.14838 14.3391 9.34994 14.25C9.80932 14.0484 10.1093 13.575 10.1093 13.05V12.8016L10.264 12.8484C10.3437 12.8719 10.5828 12.9047 10.7937 12.9187ZM7.65307 14.7141C8.75932 15.7687 10.9906 16.1297 12.8656 15.5578C13.5124 15.3609 14.2718 14.9016 14.539 14.55L14.6609 14.3906H15.139C15.4015 14.3906 15.7531 14.4234 15.9218 14.4609C16.189 14.5266 16.8593 14.7609 16.8593 14.7937C16.8593 14.7984 16.7562 14.8687 16.6296 14.9437C16.4046 15.0844 16.3953 15.0844 16.3203 15C16.1374 14.7984 15.8421 14.85 15.589 15.1266C15.3359 15.3937 15.3031 15.6422 15.4953 15.8203C15.5796 15.8953 15.5749 15.9094 15.4015 16.2094C15.3031 16.3828 15.1718 16.6969 15.1156 16.9078C15.0124 17.2781 15.0031 17.2969 14.8765 17.2969C14.7921 17.2969 14.6937 17.3484 14.6046 17.4328C14.4828 17.5547 14.4687 17.6016 14.4687 17.8547C14.4687 18.0094 14.4921 18.1875 14.5203 18.2484C14.5812 18.3797 14.7453 18.4687 14.914 18.4687C14.9937 18.4687 15.0312 18.4969 15.0312 18.5484C15.0312 18.7078 15.2703 19.35 15.4249 19.6078C15.5796 19.8609 15.5796 19.8703 15.4953 19.9453C15.289 20.1328 15.3499 20.4141 15.6499 20.7094C15.8749 20.9203 16.0953 20.9531 16.2781 20.7984L16.414 20.6812L16.5781 20.7937C16.7937 20.9437 17.3609 21.1781 17.5999 21.2156C17.7218 21.2344 17.7968 21.2719 17.7968 21.3094C17.7968 21.3656 16.8312 21.375 11.6562 21.375H5.51557V20.3484C5.51557 19.7812 5.49682 19.2656 5.46869 19.2C5.44057 19.1156 5.389 19.0781 5.314 19.0781C5.10307 19.0781 5.09369 19.125 5.09369 20.2828V21.375H4.10932H3.12494V19.5094C3.12494 17.8125 3.13432 17.6156 3.21869 17.2594C3.46713 16.2328 4.19369 15.3047 5.13119 14.8219C5.75932 14.4984 6.14369 14.4047 6.84682 14.3953L7.31088 14.3906L7.65307 14.7141ZM18.5468 14.5641C18.5468 14.8172 18.589 14.8547 18.9265 14.9297C19.3578 15.0187 19.6999 15.1594 20.0234 15.375C20.1781 15.4734 20.3421 15.5625 20.3843 15.5625C20.4265 15.5625 20.5296 15.5062 20.6093 15.4406L20.7546 15.3141L20.8718 15.4266L20.9843 15.5344L20.8437 15.6797C20.6703 15.8578 20.6703 15.9234 20.8249 16.1297C21.0218 16.3875 21.2515 16.9172 21.3265 17.2922C21.3687 17.4844 21.4296 17.6578 21.4624 17.6766C21.4953 17.7 21.6031 17.7188 21.7015 17.7188C21.8703 17.7188 21.8749 17.7234 21.8749 17.8828C21.8749 18.0422 21.8703 18.0469 21.6921 18.0469C21.4624 18.0469 21.4109 18.1125 21.3265 18.5016C21.2562 18.8578 21.064 19.2984 20.8484 19.6125C20.6703 19.8656 20.6703 19.9219 20.8249 20.1094L20.9515 20.2547L20.8531 20.3531L20.7546 20.4516L20.6093 20.325C20.4218 20.1703 20.3656 20.1703 20.1124 20.3484C19.7984 20.5641 19.3578 20.7563 19.0015 20.8266C18.6124 20.9109 18.5468 20.9625 18.5468 21.1922C18.5468 21.3703 18.5421 21.375 18.3828 21.375C18.2234 21.375 18.2187 21.3703 18.2187 21.1969C18.2187 21.1031 18.1999 21 18.1812 20.9672C18.1624 20.9391 17.989 20.8781 17.7968 20.8359C17.4078 20.7469 16.8781 20.5172 16.6296 20.325C16.4234 20.1703 16.3578 20.1703 16.1796 20.3438L16.0343 20.4844L15.9265 20.3719L15.814 20.2547L15.9406 20.1094C16.0062 20.0297 16.0624 19.9266 16.0624 19.8844C16.0624 19.8422 15.9734 19.6781 15.8749 19.5234C15.6593 19.2 15.5187 18.8578 15.4296 18.4266C15.3546 18.0891 15.3171 18.0469 15.0687 18.0469C14.8953 18.0469 14.8906 18.0422 14.8906 17.8828C14.8906 17.7234 14.8953 17.7188 15.0734 17.7188C15.2843 17.7188 15.4062 17.625 15.4062 17.4609C15.4062 17.2359 15.6453 16.6031 15.8515 16.2844C15.964 16.1062 16.0624 15.9234 16.0624 15.8812C16.0624 15.8391 16.0062 15.7359 15.9406 15.6562L15.814 15.5109L15.9124 15.4125L16.0109 15.3141L16.1562 15.4406C16.2359 15.5062 16.339 15.5625 16.3812 15.5625C16.4234 15.5625 16.5874 15.4734 16.7421 15.375C17.0656 15.1594 17.4078 15.0187 17.839 14.9297C18.1765 14.8547 18.2187 14.8172 18.2187 14.5641C18.2187 14.3953 18.2234 14.3906 18.3828 14.3906C18.5421 14.3906 18.5468 14.3953 18.5468 14.5641Z" fill="black"/>
<path d="M17.9515 15.2812C16.6671 15.5109 15.7625 16.589 15.7625 17.8828C15.7671 19.1672 16.6156 20.1937 17.8906 20.4656C19.3906 20.7797 20.8625 19.6594 21.0078 18.089C21.1203 16.875 20.2953 15.6937 19.1046 15.3562C18.7718 15.2625 18.2562 15.2297 17.9515 15.2812ZM18.889 15.7265C19.9484 16.0031 20.675 16.9922 20.5953 18.0469C20.5156 19.1344 19.6343 20.0156 18.5468 20.0953C17.0843 20.2078 15.8609 18.7734 16.2265 17.3765C16.5359 16.1812 17.75 15.4312 18.889 15.7265Z" fill="black"/>
</svg>
