<svg width="25" height="24" viewBox="0 0 25 24" fill="none" xmlns="http://www.w3.org/2000/svg">
<path d="M18.8518 10.8967C20.2468 10.7007 21.3208 9.50473 21.3238 8.05573C21.3238 6.62773 20.2828 5.44373 18.9178 5.21973" stroke="#1C1C1C" stroke-width="1.5" stroke-linecap="round" stroke-linejoin="round"/>
<path d="M18.8518 10.8967C20.2468 10.7007 21.3208 9.50473 21.3238 8.05573C21.3238 6.62773 20.2828 5.44373 18.9178 5.21973" stroke="black" stroke-opacity="0.2" stroke-width="1.5" stroke-linecap="round" stroke-linejoin="round"/>
<path d="M18.8518 10.8967C20.2468 10.7007 21.3208 9.50473 21.3238 8.05573C21.3238 6.62773 20.2828 5.44373 18.9178 5.21973" stroke="black" stroke-opacity="0.2" stroke-width="1.5" stroke-linecap="round" stroke-linejoin="round"/>
<path d="M18.8518 10.8967C20.2468 10.7007 21.3208 9.50473 21.3238 8.05573C21.3238 6.62773 20.2828 5.44373 18.9178 5.21973" stroke="black" stroke-opacity="0.2" stroke-width="1.5" stroke-linecap="round" stroke-linejoin="round"/>
<path d="M18.8518 10.8967C20.2468 10.7007 21.3208 9.50473 21.3238 8.05573C21.3238 6.62773 20.2828 5.44373 18.9178 5.21973" stroke="black" stroke-opacity="0.2" stroke-width="1.5" stroke-linecap="round" stroke-linejoin="round"/>
<path d="M18.8518 10.8967C20.2468 10.7007 21.3208 9.50473 21.3238 8.05573C21.3238 6.62773 20.2828 5.44373 18.9178 5.21973" stroke="black" stroke-opacity="0.2" stroke-width="1.5" stroke-linecap="round" stroke-linejoin="round"/>
<path d="M18.8518 10.8967C20.2468 10.7007 21.3208 9.50473 21.3238 8.05573C21.3238 6.62773 20.2828 5.44373 18.9178 5.21973" stroke="black" stroke-opacity="0.2" stroke-width="1.5" stroke-linecap="round" stroke-linejoin="round"/>
<path d="M20.6926 14.2505C22.0436 14.4525 22.9866 14.9255 22.9866 15.9005C22.9866 16.5715 22.5426 17.0075 21.8246 17.2815" stroke="#1C1C1C" stroke-width="1.5" stroke-linecap="round" stroke-linejoin="round"/>
<path d="M20.6926 14.2505C22.0436 14.4525 22.9866 14.9255 22.9866 15.9005C22.9866 16.5715 22.5426 17.0075 21.8246 17.2815" stroke="black" stroke-opacity="0.2" stroke-width="1.5" stroke-linecap="round" stroke-linejoin="round"/>
<path d="M20.6926 14.2505C22.0436 14.4525 22.9866 14.9255 22.9866 15.9005C22.9866 16.5715 22.5426 17.0075 21.8246 17.2815" stroke="black" stroke-opacity="0.2" stroke-width="1.5" stroke-linecap="round" stroke-linejoin="round"/>
<path d="M20.6926 14.2505C22.0436 14.4525 22.9866 14.9255 22.9866 15.9005C22.9866 16.5715 22.5426 17.0075 21.8246 17.2815" stroke="black" stroke-opacity="0.2" stroke-width="1.5" stroke-linecap="round" stroke-linejoin="round"/>
<path d="M20.6926 14.2505C22.0436 14.4525 22.9866 14.9255 22.9866 15.9005C22.9866 16.5715 22.5426 17.0075 21.8246 17.2815" stroke="black" stroke-opacity="0.2" stroke-width="1.5" stroke-linecap="round" stroke-linejoin="round"/>
<path d="M20.6926 14.2505C22.0436 14.4525 22.9866 14.9255 22.9866 15.9005C22.9866 16.5715 22.5426 17.0075 21.8246 17.2815" stroke="black" stroke-opacity="0.2" stroke-width="1.5" stroke-linecap="round" stroke-linejoin="round"/>
<path d="M20.6926 14.2505C22.0436 14.4525 22.9866 14.9255 22.9866 15.9005C22.9866 16.5715 22.5426 17.0075 21.8246 17.2815" stroke="black" stroke-opacity="0.2" stroke-width="1.5" stroke-linecap="round" stroke-linejoin="round"/>
<path fill-rule="evenodd" clip-rule="evenodd" d="M12.8508 14.6641C9.63685 14.6641 6.89185 15.1511 6.89185 17.0961C6.89185 19.0401 9.61985 19.5411 12.8508 19.5411C16.0648 19.5411 18.8088 19.0591 18.8088 17.1131C18.8088 15.1671 16.0818 14.6641 12.8508 14.6641Z" stroke="#1C1C1C" stroke-width="1.5" stroke-linecap="round" stroke-linejoin="round"/>
<path fill-rule="evenodd" clip-rule="evenodd" d="M12.8508 14.6641C9.63685 14.6641 6.89185 15.1511 6.89185 17.0961C6.89185 19.0401 9.61985 19.5411 12.8508 19.5411C16.0648 19.5411 18.8088 19.0591 18.8088 17.1131C18.8088 15.1671 16.0818 14.6641 12.8508 14.6641Z" stroke="black" stroke-opacity="0.2" stroke-width="1.5" stroke-linecap="round" stroke-linejoin="round"/>
<path fill-rule="evenodd" clip-rule="evenodd" d="M12.8508 14.6641C9.63685 14.6641 6.89185 15.1511 6.89185 17.0961C6.89185 19.0401 9.61985 19.5411 12.8508 19.5411C16.0648 19.5411 18.8088 19.0591 18.8088 17.1131C18.8088 15.1671 16.0818 14.6641 12.8508 14.6641Z" stroke="black" stroke-opacity="0.2" stroke-width="1.5" stroke-linecap="round" stroke-linejoin="round"/>
<path fill-rule="evenodd" clip-rule="evenodd" d="M12.8508 14.6641C9.63685 14.6641 6.89185 15.1511 6.89185 17.0961C6.89185 19.0401 9.61985 19.5411 12.8508 19.5411C16.0648 19.5411 18.8088 19.0591 18.8088 17.1131C18.8088 15.1671 16.0818 14.6641 12.8508 14.6641Z" stroke="black" stroke-opacity="0.2" stroke-width="1.5" stroke-linecap="round" stroke-linejoin="round"/>
<path fill-rule="evenodd" clip-rule="evenodd" d="M12.8508 14.6641C9.63685 14.6641 6.89185 15.1511 6.89185 17.0961C6.89185 19.0401 9.61985 19.5411 12.8508 19.5411C16.0648 19.5411 18.8088 19.0591 18.8088 17.1131C18.8088 15.1671 16.0818 14.6641 12.8508 14.6641Z" stroke="black" stroke-opacity="0.2" stroke-width="1.5" stroke-linecap="round" stroke-linejoin="round"/>
<path fill-rule="evenodd" clip-rule="evenodd" d="M12.8508 14.6641C9.63685 14.6641 6.89185 15.1511 6.89185 17.0961C6.89185 19.0401 9.61985 19.5411 12.8508 19.5411C16.0648 19.5411 18.8088 19.0591 18.8088 17.1131C18.8088 15.1671 16.0818 14.6641 12.8508 14.6641Z" stroke="black" stroke-opacity="0.2" stroke-width="1.5" stroke-linecap="round" stroke-linejoin="round"/>
<path fill-rule="evenodd" clip-rule="evenodd" d="M12.8508 14.6641C9.63685 14.6641 6.89185 15.1511 6.89185 17.0961C6.89185 19.0401 9.61985 19.5411 12.8508 19.5411C16.0648 19.5411 18.8088 19.0591 18.8088 17.1131C18.8088 15.1671 16.0818 14.6641 12.8508 14.6641Z" stroke="black" stroke-opacity="0.2" stroke-width="1.5" stroke-linecap="round" stroke-linejoin="round"/>
<path fill-rule="evenodd" clip-rule="evenodd" d="M12.851 11.888C14.96 11.888 16.67 10.179 16.67 8.069C16.67 5.96 14.96 4.25 12.851 4.25C10.742 4.25 9.03201 5.96 9.03201 8.069C9.02401 10.171 10.721 11.881 12.823 11.888H12.851Z" stroke="#1C1C1C" stroke-width="1.5" stroke-linecap="round" stroke-linejoin="round"/>
<path fill-rule="evenodd" clip-rule="evenodd" d="M12.851 11.888C14.96 11.888 16.67 10.179 16.67 8.069C16.67 5.96 14.96 4.25 12.851 4.25C10.742 4.25 9.03201 5.96 9.03201 8.069C9.02401 10.171 10.721 11.881 12.823 11.888H12.851Z" stroke="black" stroke-opacity="0.2" stroke-width="1.5" stroke-linecap="round" stroke-linejoin="round"/>
<path fill-rule="evenodd" clip-rule="evenodd" d="M12.851 11.888C14.96 11.888 16.67 10.179 16.67 8.069C16.67 5.96 14.96 4.25 12.851 4.25C10.742 4.25 9.03201 5.96 9.03201 8.069C9.02401 10.171 10.721 11.881 12.823 11.888H12.851Z" stroke="black" stroke-opacity="0.2" stroke-width="1.5" stroke-linecap="round" stroke-linejoin="round"/>
<path fill-rule="evenodd" clip-rule="evenodd" d="M12.851 11.888C14.96 11.888 16.67 10.179 16.67 8.069C16.67 5.96 14.96 4.25 12.851 4.25C10.742 4.25 9.03201 5.96 9.03201 8.069C9.02401 10.171 10.721 11.881 12.823 11.888H12.851Z" stroke="black" stroke-opacity="0.2" stroke-width="1.5" stroke-linecap="round" stroke-linejoin="round"/>
<path fill-rule="evenodd" clip-rule="evenodd" d="M12.851 11.888C14.96 11.888 16.67 10.179 16.67 8.069C16.67 5.96 14.96 4.25 12.851 4.25C10.742 4.25 9.03201 5.96 9.03201 8.069C9.02401 10.171 10.721 11.881 12.823 11.888H12.851Z" stroke="black" stroke-opacity="0.2" stroke-width="1.5" stroke-linecap="round" stroke-linejoin="round"/>
<path fill-rule="evenodd" clip-rule="evenodd" d="M12.851 11.888C14.96 11.888 16.67 10.179 16.67 8.069C16.67 5.96 14.96 4.25 12.851 4.25C10.742 4.25 9.03201 5.96 9.03201 8.069C9.02401 10.171 10.721 11.881 12.823 11.888H12.851Z" stroke="black" stroke-opacity="0.2" stroke-width="1.5" stroke-linecap="round" stroke-linejoin="round"/>
<path fill-rule="evenodd" clip-rule="evenodd" d="M12.851 11.888C14.96 11.888 16.67 10.179 16.67 8.069C16.67 5.96 14.96 4.25 12.851 4.25C10.742 4.25 9.03201 5.96 9.03201 8.069C9.02401 10.171 10.721 11.881 12.823 11.888H12.851Z" stroke="black" stroke-opacity="0.2" stroke-width="1.5" stroke-linecap="round" stroke-linejoin="round"/>
<path d="M6.84895 10.8967C5.45295 10.7007 4.37995 9.50473 4.37695 8.05573C4.37695 6.62773 5.41795 5.44373 6.78295 5.21973" stroke="#1C1C1C" stroke-width="1.5" stroke-linecap="round" stroke-linejoin="round"/>
<path d="M6.84895 10.8967C5.45295 10.7007 4.37995 9.50473 4.37695 8.05573C4.37695 6.62773 5.41795 5.44373 6.78295 5.21973" stroke="black" stroke-opacity="0.2" stroke-width="1.5" stroke-linecap="round" stroke-linejoin="round"/>
<path d="M6.84895 10.8967C5.45295 10.7007 4.37995 9.50473 4.37695 8.05573C4.37695 6.62773 5.41795 5.44373 6.78295 5.21973" stroke="black" stroke-opacity="0.2" stroke-width="1.5" stroke-linecap="round" stroke-linejoin="round"/>
<path d="M6.84895 10.8967C5.45295 10.7007 4.37995 9.50473 4.37695 8.05573C4.37695 6.62773 5.41795 5.44373 6.78295 5.21973" stroke="black" stroke-opacity="0.2" stroke-width="1.5" stroke-linecap="round" stroke-linejoin="round"/>
<path d="M6.84895 10.8967C5.45295 10.7007 4.37995 9.50473 4.37695 8.05573C4.37695 6.62773 5.41795 5.44373 6.78295 5.21973" stroke="black" stroke-opacity="0.2" stroke-width="1.5" stroke-linecap="round" stroke-linejoin="round"/>
<path d="M6.84895 10.8967C5.45295 10.7007 4.37995 9.50473 4.37695 8.05573C4.37695 6.62773 5.41795 5.44373 6.78295 5.21973" stroke="black" stroke-opacity="0.2" stroke-width="1.5" stroke-linecap="round" stroke-linejoin="round"/>
<path d="M6.84895 10.8967C5.45295 10.7007 4.37995 9.50473 4.37695 8.05573C4.37695 6.62773 5.41795 5.44373 6.78295 5.21973" stroke="black" stroke-opacity="0.2" stroke-width="1.5" stroke-linecap="round" stroke-linejoin="round"/>
<path d="M5.00811 14.2505C3.65711 14.4525 2.71411 14.9255 2.71411 15.9005C2.71411 16.5715 3.15811 17.0075 3.87611 17.2815" stroke="#1C1C1C" stroke-width="1.5" stroke-linecap="round" stroke-linejoin="round"/>
<path d="M5.00811 14.2505C3.65711 14.4525 2.71411 14.9255 2.71411 15.9005C2.71411 16.5715 3.15811 17.0075 3.87611 17.2815" stroke="black" stroke-opacity="0.2" stroke-width="1.5" stroke-linecap="round" stroke-linejoin="round"/>
<path d="M5.00811 14.2505C3.65711 14.4525 2.71411 14.9255 2.71411 15.9005C2.71411 16.5715 3.15811 17.0075 3.87611 17.2815" stroke="black" stroke-opacity="0.2" stroke-width="1.5" stroke-linecap="round" stroke-linejoin="round"/>
<path d="M5.00811 14.2505C3.65711 14.4525 2.71411 14.9255 2.71411 15.9005C2.71411 16.5715 3.15811 17.0075 3.87611 17.2815" stroke="black" stroke-opacity="0.2" stroke-width="1.5" stroke-linecap="round" stroke-linejoin="round"/>
<path d="M5.00811 14.2505C3.65711 14.4525 2.71411 14.9255 2.71411 15.9005C2.71411 16.5715 3.15811 17.0075 3.87611 17.2815" stroke="black" stroke-opacity="0.2" stroke-width="1.5" stroke-linecap="round" stroke-linejoin="round"/>
<path d="M5.00811 14.2505C3.65711 14.4525 2.71411 14.9255 2.71411 15.9005C2.71411 16.5715 3.15811 17.0075 3.87611 17.2815" stroke="black" stroke-opacity="0.2" stroke-width="1.5" stroke-linecap="round" stroke-linejoin="round"/>
<path d="M5.00811 14.2505C3.65711 14.4525 2.71411 14.9255 2.71411 15.9005C2.71411 16.5715 3.15811 17.0075 3.87611 17.2815" stroke="black" stroke-opacity="0.2" stroke-width="1.5" stroke-linecap="round" stroke-linejoin="round"/>
</svg>
